<?xml version="1.0" encoding="utf-8"?>
<!-- Generator: Adobe Illustrator 19.0.0, SVG Export Plug-In . SVG Version: 6.00 Build 0)  -->
<svg version="1.1" id="Layer_1" xmlns="http://www.w3.org/2000/svg" xmlns:xlink="http://www.w3.org/1999/xlink" x="0px" y="0px"
	 viewBox="-255 334 100 99.8" style="enable-background:new -255 334 100 99.8;" xml:space="preserve">
<style type="text/css">
	.st0{fill:#11C1F3;}
</style>
<path class="st0" d="M-192.2,368.3c-2.3-5.1-9-19-12.8-19c-3.8,0-10.5,13.9-12.8,19c-5.5,0.6-20.9,2.7-22,6.3
	c-1.2,3.6,10,14.2,14.1,18c-1.1,5.4-3.9,20.7-0.8,22.9c0.4,0.3,1,0.5,1.7,0.5c4.6,0,17.2-6.9,19.8-8.3c2.6,1.5,15.1,8.3,19.8,8.3
	c0.7,0,1.3-0.2,1.7-0.5c3-2.2,0.3-17.4-0.9-22.9c4.1-3.8,15.3-14.5,14.1-18C-171.4,371-186.7,369-192.2,368.3z M-186,391.6
	c-0.2,0.2-0.4,0.6-0.3,0.9c2,9.5,3.1,20.5,1.7,21.5c0,0-0.1,0.1-0.6,0.1c-3.8,0-15.2-6-19.3-8.4c-0.1-0.1-0.3-0.1-0.5-0.1
	s-0.3,0-0.5,0.1c-4.1,2.3-15.5,8.4-19.3,8.4c-0.4,0-0.6-0.1-0.6-0.1c-1.3-0.9-0.5-10.8,1.7-21.5c0.1-0.3,0-0.7-0.3-0.9
	c-7.2-6.6-14.5-14.7-14-16.4c0.5-1.7,11.3-4,21-5c0.3,0,0.6-0.2,0.8-0.5c4-8.9,9.5-18.4,11.3-18.4c1.8,0,7.3,9.5,11.3,18.4
	c0.1,0.3,0.4,0.5,0.8,0.5c9.7,1.1,20.4,3.4,21,5C-171.5,376.7-177.9,384.2-186,391.6z"/>
<path class="st0" d="M-214.4,387.8c1,0,1.9-1.3,1.9-2.8c0-0.9-0.3-1.7-0.7-2.2l-3,1.5c0,0.2-0.1,0.4-0.1,0.7
	C-216.2,386.5-215.4,387.8-214.4,387.8z"/>
<path class="st0" d="M-195.6,387.8c1,0,1.9-1.3,1.9-2.8c0-0.2,0-0.5-0.1-0.7l-3-1.5c-0.4,0.5-0.7,1.3-0.7,2.2
	C-197.5,386.5-196.7,387.8-195.6,387.8z"/>
<path class="st0" d="M-193.8,392.4c-1.3,0-2,0.7-2.5,1.2c-0.5,0.5-0.7,0.7-1.2,0.7c-0.5,0-0.8-0.2-1.2-0.7c-0.5-0.5-1.2-1.2-2.5-1.2
	c-1.3,0-2,0.7-2.5,1.2c-0.5,0.5-0.7,0.7-1.2,0.7c-0.5,0-0.8-0.2-1.2-0.7c-0.5-0.5-1.2-1.2-2.5-1.2s-2,0.7-2.5,1.2
	c-0.5,0.5-0.7,0.7-1.2,0.7c-0.5,0-0.8-0.2-1.2-0.7c-0.5-0.5-1.2-1.2-2.5-1.2c-0.5,0-0.9,0.4-0.9,0.9c0,0.5,0.4,0.9,0.9,0.9
	c0.5,0,0.8,0.2,1.2,0.7c0.5,0.5,1.2,1.2,2.5,1.2c1.3,0,2-0.7,2.5-1.2c0.5-0.5,0.7-0.7,1.2-0.7c0.5,0,0.8,0.2,1.2,0.7
	c0.5,0.5,1.2,1.2,2.5,1.2s2-0.7,2.5-1.2c0.5-0.5,0.7-0.7,1.2-0.7c0.5,0,0.8,0.2,1.2,0.7c0.5,0.5,1.2,1.2,2.5,1.2
	c1.3,0,2-0.7,2.5-1.2c0.5-0.5,0.7-0.7,1.2-0.7c0.5,0,0.9-0.4,0.9-0.9C-192.8,392.9-193.2,392.4-193.8,392.4z"/>
</svg>
